<svg xmlns="http://www.w3.org/2000/svg" width="42" height="30" viewBox="0 0 42 30"><defs><style>.a{fill:#38ccc1;}.b{fill:#4382cc;}.c{fill:#f26430;}</style></defs><g transform="translate(-2835 1499)"><path class="a" d="M5.937,0a6.145,6.145,0,0,1,5.937,6.333V23.667A6.145,6.145,0,0,1,5.937,30,6.145,6.145,0,0,1,0,23.667V6.333A6.145,6.145,0,0,1,5.937,0Z" transform="translate(2850.063 -1499)"/><path class="b" d="M6.25,0A6.25,6.25,0,0,1,12.5,6.25V8.125a6.25,6.25,0,0,1-12.5,0V6.25A6.25,6.25,0,0,1,6.25,0Z" transform="translate(2864.5 -1495.875)"/><path class="c" d="M6.25,0A6.25,6.25,0,0,1,12.5,6.25V8.125a6.25,6.25,0,0,1-12.5,0V6.25A6.25,6.25,0,0,1,6.25,0Z" transform="translate(2835 -1486.5)"/></g></svg>